<?xml version="1.0" standalone="no"?><!DOCTYPE svg PUBLIC "-//W3C//DTD SVG 1.1//EN" "http://www.w3.org/Graphics/SVG/1.1/DTD/svg11.dtd"><svg t="1566991271242" class="icon" viewBox="0 0 1180 1024" version="1.1" xmlns="http://www.w3.org/2000/svg" p-id="1941" xmlns:xlink="http://www.w3.org/1999/xlink" width="36.875" height="32"><defs><style type="text/css"></style></defs><path d="M994.046102 312.667119c-25.773559-61.006102-62.741695-115.764068-109.689492-162.711865C837.322034 102.920678 782.564068 66.039322 721.644746 40.265763 658.469153 13.537627 591.388475 0 522.311864 0S386.154576 13.537627 322.978983 40.265763C262.059661 66.039322 207.301695 102.920678 160.267119 149.955254S76.351186 251.747797 50.577627 312.667119C23.849492 375.842712 10.311864 442.92339 10.311864 512s13.537627 136.157288 40.265763 199.332881C76.351186 772.252203 113.232542 827.010169 160.267119 874.044746c47.034576 47.034576 101.792542 83.915932 162.711864 109.689491 63.088814 26.728136 130.169492 40.265763 199.332881 40.265763s136.157288-13.537627 199.332882-40.265763c61.006102-25.773559 115.764068-62.741695 162.711864-109.689491 47.034576-47.034576 83.915932-101.792542 109.689492-162.711865 26.728136-63.088814 40.265763-130.169492 40.265762-199.332881s-13.537627-136.157288-40.265762-199.332881z m-33.149831 384.607457c-23.951186 56.667119-58.315932 107.60678-101.966102 151.256949-43.736949 43.736949-94.589831 78.014915-151.256949 101.966102-58.663051 24.818983-121.057627 37.402034-185.274576 37.402034s-126.611525-12.583051-185.274576-37.402034c-56.667119-23.951186-107.60678-58.315932-151.256949-101.966102-43.736949-43.736949-78.014915-94.589831-101.966102-151.256949C58.908475 638.611525 46.325424 576.216949 46.325424 512S58.908475 385.388475 83.727458 326.725424c23.951186-56.667119 58.315932-107.60678 101.966101-151.256949 43.736949-43.736949 94.589831-78.014915 151.256949-101.966102C395.700339 48.59661 458.094915 36.013559 522.311864 36.013559S648.92339 48.59661 707.586441 73.415593c56.667119 23.951186 107.60678 58.315932 151.256949 101.966102 43.736949 43.736949 78.014915 94.589831 101.966102 151.256949 24.818983 58.663051 37.402034 121.057627 37.402033 185.274576s-12.496271 126.698305-37.315254 185.361356z" p-id="1942" fill="#8a8a8a"></path><path d="M682.333559 258.343051s-34.104407 74.456949-111.338305 88.081356-189.787119-2.343051-189.787118-2.343051-153.68678-8.330847-170.522034 91.552542c-9.979661 58.92339 8.417627 76.539661-29.071187 115.590509 0 0-32.108475 22.389153-37.488813-40.612882 0 0-17.616271-21.521356-15.273221 18.310509 0 0 3.037288 61.35322 58.836611 53.369491 0 0 40.526102-21.521356 47.381694-83.655593 0 0 35.145763 51.807458 0.781017 137.025085 0 0-37.488814 35.058983-27.595932 112.379661 0 0 7.63661 63.262373 51.28678 81.572881h56.580339s-78.275254-31.414237-56.059661-84.002712c0 0 1.388475-58.229153 39.571525-72.547796 0 0 35.75322-55.712542 41.04678-89.209492 5.293559-33.496949 32.802712-49.464407 67.948474-41.393898 0 0 107.086102 53.369492 192.04339 49.464407 0 0 25.426441-7.63661 26.901695 67.254237 0 0-18.570847 96.498983 0.520678 120.797288 21.174237 26.988475 21.868475 49.030508 21.868475 49.030509h52.241356s-16.488136-33.149831-30.980339-66.73356c-8.417627-19.438644 5.293559-79.229831 10.326779-99.015593 1.128136-4.252203 1.475254-8.591186 1.128136-13.016949-1.562034-22.042034-4.512542-93.201356 20.56678-109.342373 0 0 45.125424-31.848136 34.451525-104.395932-10.673898-72.547797 46.600678-95.631186 56.580339-97.28 0 0 62.741695 3.991864 64.303729-7.202712 0 0 3.037288-33.496949 14.492203-43.042712 0 0 32.108475-35.84-12.235932-54.150508 0 0-38.269831 2.343051-45.906441-19.872543 0.08678 0-83.655593-66.56-132.599322 43.389831z" p-id="1943" fill="#8a8a8a"></path></svg>